# xmcd
#
# Track frame offsets:
#	150
#	11866
#	21734
#	37319
#	58542
#	68953
#
# Disc length: 1096 seconds
#
# Revision: 1
# Processed by: cddbd v1.5.2PL0 Copyright (c) Steve Scherf et al.
# Submitted via: audiograbber 1.83.01
#
DISCID=59044606
DTITLE=The Flames - Surfrock
DYEAR=1998
DGENRE=Neo Rockabilly
TTITLE0=Wriggle
TTITLE1=The Only One
TTITLE2=Lonely
TTITLE3=Dying With A Heart Of Rock'n Roll
TTITLE4=Stay Alive
TTITLE5=Death Of A Gangsta
EXTD=
EXTT0=
EXTT1=
EXTT2=
EXTT3=
EXTT4=
EXTT5=
PLAYORDER=
